<?xml version="1.0" encoding="UTF-8"?>
<svg xmlns="http://www.w3.org/2000/svg" width="900" height="300" viewBox="0 0 900 300" role="img" aria-labelledby="chart-title chart-desc">
<title id="chart-title">Cue density</title>
<desc id="chart-desc">Cues per second for MOT17-02-DPM and KITTI Tracking 0000.</desc>
<rect width="100%" height="100%" fill="#ffffff"/>
<g font-family="Arial, Helvetica, sans-serif" fill="#202020">
<text x="450" y="28" text-anchor="middle" font-size="18" font-weight="bold">Cue density</text>
<line x1="245.00" y1="52" x2="245.00" y2="220" stroke="#d6d6d6" stroke-width="1"/>
<text x="245.00" y="240" text-anchor="middle" font-size="11">0</text>
<line x1="357.00" y1="52" x2="357.00" y2="220" stroke="#d6d6d6" stroke-width="1"/>
<text x="357.00" y="240" text-anchor="middle" font-size="11">280</text>
<line x1="469.00" y1="52" x2="469.00" y2="220" stroke="#d6d6d6" stroke-width="1"/>
<text x="469.00" y="240" text-anchor="middle" font-size="11">560</text>
<line x1="581.00" y1="52" x2="581.00" y2="220" stroke="#d6d6d6" stroke-width="1"/>
<text x="581.00" y="240" text-anchor="middle" font-size="11">840</text>
<line x1="693.00" y1="52" x2="693.00" y2="220" stroke="#d6d6d6" stroke-width="1"/>
<text x="693.00" y="240" text-anchor="middle" font-size="11">1120</text>
<line x1="805.00" y1="52" x2="805.00" y2="220" stroke="#d6d6d6" stroke-width="1"/>
<text x="805.00" y="240" text-anchor="middle" font-size="11">1400</text>
<text x="230" y="105" text-anchor="end" font-size="13" font-weight="bold">MOT17-02-DPM</text>
<rect x="245" y="80" width="536.87" height="42" fill="#2f5597"/>
<text x="789.87" y="107" font-size="13" font-weight="bold">1342.18</text>
<text x="230" y="187" text-anchor="end" font-size="13" font-weight="bold">KITTI Tracking 0000</text>
<rect x="245" y="162" width="18.44" height="42" fill="#2f5597"/>
<text x="271.44" y="189" font-size="13" font-weight="bold">46.11</text>
<text x="525.00" y="275" text-anchor="middle" font-size="12">Cues per second</text>
</g>
</svg>
